HIERARCHY
ROOT Hips
{
    OFFSET 0.000000 0.000000 0.000000
    CHANNELS 6 Xposition Yposition Zposition Zrotation Xrotation Yrotation
        JOINT Chest
        {
            OFFSET -0.000000 34.099812 -0.000000
            CHANNELS 3 Zrotation Xrotation Yrotation
            JOINT Neck
            {
                OFFSET -0.000000 25.785578 0.000000
                CHANNELS 3 Zrotation Xrotation Yrotation
                JOINT Head
                {
                    OFFSET -0.000000 11.061110 0.000000
                    CHANNELS 3 Zrotation Xrotation Yrotation
                    End Site
                    {
                        OFFSET -0.000000 17.094444 0.000000
                    }
                }
            }
            JOINT LeftCollar
            {
                OFFSET -0.000000 25.785578 0.000000
                CHANNELS 3 Zrotation Xrotation Yrotation
                JOINT LeftShoulder
                {
                    OFFSET 19.000000 -0.000000 0.000000
                    CHANNELS 3 Zrotation Xrotation Yrotation
                    JOINT LeftElbow
                    {
                        OFFSET 29.227484 0.000000 0.000000
                        CHANNELS 3 Zrotation Xrotation Yrotation
                        JOINT LeftWrist
                        {
                            OFFSET 22.377386 0.000000 0.000000
                            CHANNELS 3 Zrotation Xrotation Yrotation
                            End Site
                            {
                                OFFSET 0.000000 -15.083334 0.000000
                            }
                        }
                    }
                }
            }
            JOINT RightCollar
            {
                OFFSET -0.000000 25.785578 0.000000
                CHANNELS 3 Zrotation Xrotation Yrotation
                JOINT RightShoulder
                {
                    OFFSET -19.000000 0.000000 0.000000
                    CHANNELS 3 Zrotation Xrotation Yrotation
                    JOINT RightElbow
                    {
                        OFFSET -29.227484 0.000000 0.000000
                        CHANNELS 3 Zrotation Xrotation Yrotation
                        JOINT RightWrist
                        {
                            OFFSET -22.377386 0.000000 0.000000
                            CHANNELS 3 Zrotation Xrotation Yrotation
                            End Site
                            {
                                OFFSET -0.000000 -15.083334 0.000000
                            }
                        }
                    }
                }
            }
        }
    JOINT LeftHip
    {
        OFFSET 12.066666 0.000000 0.000000
        CHANNELS 3 Zrotation Xrotation Yrotation
        JOINT LeftKnee
        {
            OFFSET -0.000000 -38.619030 0.000000
            CHANNELS 3 Zrotation Xrotation Yrotation
            JOINT LeftAnkle
            {
                OFFSET -0.000000 -42.566540 0.000000
                CHANNELS 3 Zrotation Xrotation Yrotation
                End Site
                {
                    OFFSET -0.000000 -5.027778 17.094444
                }
            }
        }
    }
    JOINT RightHip
    {
        OFFSET -12.066666 0.000000 0.000000
        CHANNELS 3 Zrotation Xrotation Yrotation
        JOINT RightKnee
        {
            OFFSET -0.000000 -38.619030 0.000000
            CHANNELS 3 Zrotation Xrotation Yrotation
            JOINT RightAnkle
            {
                OFFSET -0.000000 -42.566540 0.000000
                CHANNELS 3 Zrotation Xrotation Yrotation
                End Site
                {
                    OFFSET -0.000000 -5.027778 17.094444
                }
            }
        }
    }
}
MOTION
Frames:    6
Frame Time:    0.010000
39.949802    89.337334    8.154646    -3.226409    3.121127    -69.717560    1.181357    4.255576    0.987265    -10.215446    -1.226200    16.835464    8.559913    -28.894482    19.161222    -12.509432    -0.612642    5.430790    -47.712440    20.777605    -19.845375    -1.892608    2.583570    -108.038086    108.856194    20.947817    40.775196    13.435608    1.348115    12.281797    2.625848    16.168203    11.250493    -48.841366    -23.149542    46.146004    -113.564011    20.685390    -40.902458    19.532232    -14.238636    -4.175243    -28.749132    30.364368    23.636171    1.700204    -15.362949    36.572880    -0.797143    -4.969255    3.838123    1.790138    24.477821    9.270166    -2.733218    -18.318132    -17.156675    
39.516933    89.288887    8.472100    -3.073620    3.212049    -69.852562    1.136083    3.590725    1.147285    -9.975808    -0.954031    17.108002    8.370987    -29.184013    19.380175    -12.419213    -0.604156    5.316374    -47.319515    20.466202    -19.288296    -1.939821    2.792557    -108.403336    109.287720    21.142996    40.845531    12.155626    1.188030    12.089067    0.982741    14.735818    11.778358    -50.178055    -22.532112    43.802063    -110.446205    20.821199    -43.071663    20.055914    -14.856922    -4.168122    -28.780376    29.380682    24.292772    2.324628    -14.546234    36.293453    -0.911442    -4.702815    3.871665    1.850413    24.269156    9.114852    -2.155176    -18.802950    -17.003735    
39.071968    89.234909    8.801977    -2.919803    3.324478    -69.977043    1.076997    2.962664    1.338080    -9.668532    -0.797278    17.346035    8.166318    -29.439749    19.567244    -12.275526    -0.590913    5.216018    -46.953693    20.139837    -18.782803    -2.050140    3.030379    -108.765182    109.723785    21.287514    40.688133    10.831675    1.023077    11.890512    -0.656541    13.281293    12.155021    -51.282719    -21.808655    41.598190    -108.026047    20.776337    -45.047890    20.631004    -15.454339    -4.071505    -28.742151    28.428850    24.833485    2.896260    -13.754206    35.996807    -1.029319    -4.427534    3.900499    1.946069    24.047823    8.926380    -1.546427    -19.289114    -16.860373    
38.611813    89.177704    9.144086    -2.770758    3.451659    -70.103836    1.001546    2.375252    1.573126    -9.294104    -0.734689    17.546764    7.937471    -29.666204    19.715557    -12.090926    -0.539820    5.116274    -46.600094    19.784090    -18.335129    -2.207835    3.342538    -109.105408    110.217804    21.420240    40.436409    9.461654    0.853429    11.673087    -2.266480    11.807100    12.362733    -52.157837    -21.024666    39.572083    -106.910828    21.076979    -46.807339    21.251215    -16.009628    -3.886299    -28.627174    27.512419    25.212706    3.363675    -13.004138    35.701954    -1.142170    -4.146997    3.923687    2.054578    23.828878    8.708966    -0.940710    -19.744762    -16.709888    
38.134186    89.119362    9.498542    -2.631709    3.587114    -70.239723    0.908062    1.828987    1.859313    -8.855262    -0.750988    17.716824    7.683382    -29.863384    19.829662    -11.869866    -0.520206    5.024912    -46.272251    19.472607    -17.905510    -2.365178    3.555321    -109.450119    110.617287    21.472864    39.990681    8.048010    0.688891    11.436546    -3.827173    10.320279    12.393104    -52.826332    -20.226078    37.744083    -107.272263    22.136173    -48.375195    21.906452    -16.507912    -3.618858    -28.424448    26.638212    25.387583    3.720092    -12.267414    35.427139    -1.242997    -3.863244    3.938061    2.154388    23.626310    8.468982    -0.365625    -20.149265    -16.539143    
37.637932    89.061569    9.865599    -2.506181    3.725132    -70.384819    0.796681    1.317646    2.194788    -8.367842    -0.808520    17.854130    7.402359    -30.043882    19.904478    -11.627167    -0.527165    4.923588    -45.959476    19.204462    -17.470814    -2.502074    3.749361    -109.777206    111.014252    21.517666    39.546566    6.602668    0.526010    11.167855    -5.332775    8.847119    12.237410    -53.349701    -19.448742    36.073936    -108.777603    23.980663    -49.763355    22.583801    -16.943394    -3.279624    -28.123127    25.816965    25.329214    4.018512    -11.468767    35.177391    -1.328177    -3.577124    3.940269    2.229612    23.451721    8.217834    0.156474    -20.493296    -16.345366    
